<svg xmlns="http://www.w3.org/2000/svg" width="4000" height="3728" viewBox="0 0 4000 3728">
  <defs>
    <style>
      .cls-1 {
        fill: #21409a;
      }

      .cls-1, .cls-2 {
        fill-rule: evenodd;
      }

      .cls-2 {
        fill: #f37021;
      }
    </style>
  </defs>
  <path id="Ellipse_1_copy" data-name="Ellipse 1 copy" class="cls-1" d="M1334.73,3329.71c-570.69-255.14-968.367-827.83-968.367-1493.42,0-902.99,731.977-1635.012,1634.907-1635.012,745.16,0,1373.88,498.549,1570.85,1180.312l-463.81-.01C2929.34,946.259,2501.1,639.747,2001.27,639.747,1340.48,639.747,804.8,1175.46,804.8,1836.29c0,484.03,287.378,900.93,700.808,1089.37Zm1303.87,12.71c449.99-190.68,796.9-577.17,933.86-1052.62l-464.47,1.99C2928.83,2726.7,2638.6,3342.42,2638.6,3342.42Z"/>
  <path id="Ellipse_1_copy_2" data-name="Ellipse 1 copy 2" class="cls-2" d="M2172.51,3424.31H1705.48s515.51-1003.65,661.28-1435.61c24-71.13,37.97-157.05,37.97-188.17,0-220.17-185.2-398.65-413.65-398.65s-413.66,178.48-413.66,398.65c0,172.88,114.2,320.06,273.87,375.3l-161.71,375.58c-312.29-116.54-533.74-408.79-533.74-750.89,0-444.56,373.96-804.943,835.26-804.943s835.26,360.383,835.26,804.943c0,22.69-4.68,137.74-46.7,253.74C2634.87,2453.91,2279.6,3226.73,2172.51,3424.31Z"/>
</svg>
